<svg xmlns="http://www.w3.org/2000/svg" viewBox="0 0 100 100">
  <ellipse cx="50" cy="30" rx="25" ry="15" fill="#FFFFFF"/>
  <ellipse cx="40" cy="30" rx="15" ry="10" fill="#FFFFFF"/>
  <ellipse cx="60" cy="30" rx="15" ry="10" fill="#FFFFFF"/>
  <path d="M 50 20 L 20 35 L 20 60 Q 20 75 50 85 Q 80 75 80 60 L 80 35 Z" fill="#1976D2" stroke="#0D47A1" stroke-width="2"/>
  <circle cx="50" cy="50" r="8" fill="#E3F2FD"/>
  <rect x="40" y="55" width="20" height="15" rx="2" fill="#0D47A1"/>
  <rect x="42" y="57" width="16" height="2" fill="#1976D2"/>
  <rect x="42" y="60" width="16" height="2" fill="#1976D2"/>
  <rect x="42" y="63" width="16" height="2" fill="#1976D2"/>
  <path d="M 45 52 L 50 57 L 55 52" stroke="#FFFFFF" stroke-width="2" fill="none" stroke-linecap="round"/>
  <path d="M 30 40 L 35 45" stroke="#E3F2FD" stroke-width="2" fill="none" stroke-linecap="round"/>
  <path d="M 65 40 L 70 45" stroke="#E3F2FD" stroke-width="2" fill="none" stroke-linecap="round"/>
</svg>

