<svg xmlns="http://www.w3.org/2000/svg" viewBox="0 0 100 100">
  <path d="M 30 15 Q 25 15 25 20 L 25 60 Q 25 65 30 65 L 40 65 Q 45 65 45 60 L 45 50 L 55 50 L 55 60 Q 55 65 60 65 L 70 65 Q 75 65 75 60 L 75 20 Q 75 15 70 15 Z" fill="#1976D2"/>
  <rect x="30" y="20" width="40" height="35" rx="2" fill="#E3F2FD"/>
  <rect x="35" y="25" width="30" height="25" fill="#1976D2"/>
  <circle cx="50" cy="37" r="3" fill="#E3F2FD"/>
  <rect x="40" y="45" width="20" height="2" fill="#E3F2FD"/>
  <rect x="42" y="50" width="16" height="2" fill="#E3F2FD"/>
  <circle cx="30" cy="70" r="4" fill="#1976D2"/>
  <circle cx="70" cy="70" r="4" fill="#1976D2"/>
</svg>

