<svg xmlns="http://www.w3.org/2000/svg" viewBox="0 0 100 100">
  <polygon points="20,80 30,20 50,20 60,80" fill="#1976D2"/>
  <line x1="30" y1="20" x2="30" y2="15" stroke="#1976D2" stroke-width="2"/>
  <line x1="35" y1="20" x2="35" y2="12" stroke="#1976D2" stroke-width="2"/>
  <line x1="40" y1="20" x2="40" y2="10" stroke="#1976D2" stroke-width="2"/>
  <line x1="45" y1="20" x2="45" y2="12" stroke="#1976D2" stroke-width="2"/>
  <line x1="50" y1="20" x2="50" y2="15" stroke="#1976D2" stroke-width="2"/>
  <circle cx="30" cy="10" r="3" fill="#F44336"/>
  <path d="M 30 10 Q 25 5 20 10 Q 25 15 30 10" fill="none" stroke="#1976D2" stroke-width="1.5"/>
  <path d="M 30 10 Q 35 5 40 10 Q 35 15 30 10" fill="none" stroke="#1976D2" stroke-width="1.5"/>
  <ellipse cx="70" cy="60" rx="20" ry="15" fill="#1976D2" transform="rotate(-30 70 60)"/>
  <rect x="65" y="55" width="10" height="10" rx="1" fill="#1976D2"/>
  <circle cx="70" cy="60" r="3" fill="#F44336"/>
  <path d="M 70 60 Q 65 55 60 60 Q 65 65 70 60" fill="none" stroke="#1976D2" stroke-width="1.5"/>
  <path d="M 70 60 Q 75 55 80 60 Q 75 65 70 60" fill="none" stroke="#1976D2" stroke-width="1.5"/>
</svg>

