<svg xmlns="http://www.w3.org/2000/svg" viewBox="0 0 100 100">
  <circle cx="25" cy="30" r="8" fill="#000000"/>
  <rect x="20" y="38" width="10" height="25" fill="#000000"/>
  <rect x="18" y="38" width="14" height="8" rx="1" fill="#000000"/>
  <rect x="19" y="40" width="12" height="4" fill="#FFFFFF"/>
  <line x1="25" y1="63" x2="20" y2="70" stroke="#000000" stroke-width="2"/>
  <line x1="25" y1="63" x2="30" y2="70" stroke="#000000" stroke-width="2"/>
  <line x1="25" y1="50" x2="30" y2="45" stroke="#000000" stroke-width="2"/>
  <line x1="30" y1="45" x2="30" y2="40" stroke="#000000" stroke-width="2"/>
  <rect x="60" y="35" width="30" height="20" rx="1" fill="#FFFFFF" stroke="#000000" stroke-width="2"/>
  <line x1="60" y1="45" x2="90" y2="45" stroke="#000000" stroke-width="1"/>
  <line x1="60" y1="50" x2="90" y2="50" stroke="#000000" stroke-width="1"/>
  <rect x="70" y="55" width="10" height="25" fill="#000000"/>
  <line x1="65" y1="60" x2="85" y2="60" stroke="#000000" stroke-width="2"/>
  <line x1="65" y1="65" x2="85" y2="65" stroke="#000000" stroke-width="2"/>
  <line x1="65" y1="70" x2="85" y2="70" stroke="#000000" stroke-width="2"/>
</svg>

